<?xml version="1.0" encoding="UTF-8"?>
<svg id="Capa_2" data-name="Capa 2" xmlns="http://www.w3.org/2000/svg" xmlns:xlink="http://www.w3.org/1999/xlink" viewBox="0 0 1205.95 273">
  <defs>
    <style>
      .cls-1 {
        fill: #c63b8d;
      }

      .cls-2 {
        fill: #fff;
      }

      .cls-3 {
        fill: none;
      }

      .cls-4 {
        clip-path: url(#clippath-1);
      }

      .cls-5 {
        fill: #1f3969;
      }

      .cls-6 {
        fill: #e85c0c;
      }

      .cls-7 {
        fill: #92c021;
      }

      .cls-8 {
        clip-path: url(#clippath-2);
      }

      .cls-9 {
        clip-path: url(#clippath);
      }

      .cls-10 {
        fill: #fab806;
      }
    </style>
    <clipPath id="clippath">
      <path class="cls-3" d="M1107,145.51v-80.35c0-12.98,9.1-23.19,25.1-23.19s24.55,9.94,24.55,22.37v80.63c0,12.15-8,24.02-24.55,24.02s-25.1-11.04-25.1-23.47M1057.63,65.99v80.35c0,45.01,39.17,61.02,74.48,61.02s73.65-18.5,73.65-61.58v-78.97c0-45.01-37.79-62.96-73.92-62.96s-74.2,18.22-74.2,62.13"/>
    </clipPath>
    <clipPath id="clippath-1">
      <polygon class="cls-3" points="975.47 5.63 904.3 122.84 904.3 157.37 987.15 157.37 987.15 199.79 1031.97 199.79 1031.97 157.37 1052.35 157.37 1052.35 121.2 1031.97 121.2 1031.97 68.45 987.15 97.27 987.15 121.2 952.65 121.2 1027.63 5.63 975.47 5.63"/>
    </clipPath>
    <clipPath id="clippath-2">
      <polygon class="cls-3" points="975.75 5.93 904.58 123.13 904.58 157.67 987.44 157.67 987.44 200.09 1032.26 200.09 1032.26 157.67 1052.63 157.67 1052.63 121.5 1032.26 121.5 1032.26 68.75 987.44 97.57 987.44 121.5 952.94 121.5 1027.91 5.93 975.75 5.93"/>
    </clipPath>
  </defs>
  <g id="Capa_1-2" data-name="Capa 1">
    <g>
      <g>
        <polygon class="cls-5" points="118.6 85.19 104.28 85.19 104.28 99.79 93.4 99.79 93.4 85.19 79.06 85.19 79.06 73.52 93.4 73.52 93.4 58.91 104.28 58.91 104.28 73.52 118.6 73.52 118.6 85.19"/>
        <path class="cls-5" d="M253.58,162.78V49.35h37.28v110c0,20.54,10.04,34.47,32.02,34.47,20.55,0,31.54-11.74,31.54-34.47V49.35h36.8v111.23c0,42.52-29.16,66-69.06,66s-68.58-21.03-68.58-63.8"/>
        <path class="cls-5" d="M417.73,164.98v-54.27c0-42.06,32.26-64.3,69.77-64.3,32.74,0,67.15,17.85,67.15,57.45v6.85h-35.12v-3.43c0-20.28-17.44-28.6-31.79-28.6-15.53,0-32.97,8.57-32.97,30.81v54.26c0,19.32,15.29,30.57,33.93,30.57,14.34,0,30.82-8.31,30.82-28.85v-3.18h35.12v6.85c0,39.6-33.22,57.45-66.19,57.45-37.29,0-70.73-20.29-70.73-61.6"/>
        <path class="cls-5" d="M579.97,162.78V49.35h37.28v110c0,20.54,10.04,34.47,32.01,34.47,20.57,0,31.55-11.74,31.55-34.47V49.35h36.8v111.23c0,42.52-29.16,66-69.06,66s-68.58-21.03-68.58-63.8"/>
        <path class="cls-5" d="M98.83,11.59C44.34,11.59,0,56.94,0,112.69v47.61c0,55.75,44.34,101.11,98.83,101.11s98.84-45.36,98.84-101.11v-47.61c0-55.75-44.34-101.11-98.84-101.11M98.83,241.84c-44.01,0-79.69-36.5-79.69-81.53v-47.61c0-45.02,35.68-81.53,79.69-81.53s79.69,36.51,79.69,81.53v47.61c0,45.03-35.67,81.53-79.69,81.53"/>
        <path class="cls-5" d="M40.59,197.51h116.5c3.38-5.45,5.95-11.36,7.57-17.6H33.01c1.62,6.24,4.19,12.15,7.58,17.6"/>
        <path class="cls-5" d="M52.11,211.44c11.7,10.79,27.31,17.6,44.51,17.6h4.42c17.2,0,32.81-6.81,44.52-17.6H52.11Z"/>
        <polygon class="cls-5" points="98.83 124.97 31.85 164.4 31.85 166.06 165.81 166.06 165.81 164.4 98.83 124.97"/>
      </g>
      <rect class="cls-5" x="808.6" width="5" height="273"/>
      <g>
        <path class="cls-5" d="M1057.82,146.61v-80.35c0-43.9,37.51-62.13,74.2-62.13s73.92,17.95,73.92,62.96v78.97c0,43.08-38.62,61.58-73.65,61.58s-74.48-16.02-74.48-61.02M1156.85,145.23v-80.63c0-12.43-8.83-22.37-24.55-22.37s-25.1,10.22-25.1,23.19v80.35c0,12.43,8.27,23.47,25.1,23.47s24.55-11.87,24.55-24.02"/>
        <polygon class="cls-5" points="987.34 157.64 904.49 157.64 904.49 123.1 975.66 5.9 1027.82 5.9 952.84 121.47 987.34 121.47 987.34 97.54 1032.17 68.71 1032.17 121.47 1052.54 121.47 1052.54 157.64 1032.17 157.64 1032.17 200.06 987.34 200.06 987.34 157.64"/>
        <path class="cls-6" d="M1205.86,268.59h-263.07c-20.97,0-37.96-17-37.96-37.96v-17.75h301.03v55.71Z"/>
        <g class="cls-9">
          <path class="cls-6" d="M1051.2,132.93v49.95c55.12,0,99.79-44.72,99.79-99.89h-49.89c0,27.59-22.34,49.95-49.89,49.95"/>
          <path class="cls-7" d="M1066.01-3.51c0,46.03,37.28,83.34,83.26,83.34,45.98,0,83.26-37.31,83.26-83.34h-166.52Z"/>
        </g>
        <g class="cls-4">
          <path class="cls-1" d="M1041.17,93.64V20.64c-80.56,0-145.86,65.37-145.86,146.01h72.93c0-40.32,32.65-73,72.93-73"/>
        </g>
        <g class="cls-8">
          <path class="cls-10" d="M1121.91,226.73c0-40.77-33.02-73.82-73.75-73.82s-73.75,33.05-73.75,73.82h147.49Z"/>
        </g>
        <g>
          <path class="cls-2" d="M930.75,247.11c0-4.11,4.07-6.07,7.85-6.07h4.22v-1.63c0-1.78-1.18-2.67-3.33-2.67-1.96,0-3.15.81-3.15,1.96v.59h-4.74v-.59c0-4.18,4.07-5.85,8.07-5.85,4.37,0,8.44,1.59,8.44,6.37v9.03c0,1.18.19,3.78.33,4.18h-5.15l-.19-1.96h-.11c-1.63,1.96-3.52,2.37-5.74,2.37-3.81,0-6.52-2.11-6.52-5.74ZM942.82,245.41v-1h-3.67c-1.89,0-3.15.59-3.15,2.22,0,1.41,1.07,2.22,3.07,2.22,2.93,0,3.74-1.52,3.74-3.44Z"/>
          <path class="cls-2" d="M952.49,233.23h5.18v2.41h.07c1.37-1.89,3.41-2.81,5.67-2.81,3.85,0,6.48,2.37,6.48,6.81v12.81h-5.29v-11.18c0-2.41-1-4-3.26-4s-3.52,1.41-3.52,4.37v10.81h-5.33v-19.22ZM953.56,230.12c.48-2.85,2.07-5.07,4.78-5.07,2.18,0,4.07,1.22,6.22,1.22,1.04,0,1.26-.89,1.52-1.78l3.04.7c-.41,2.78-1.85,5.04-4.52,5.04-2.18,0-4.22-1.18-6.22-1.18-.78,0-1.07.33-1.67,1.74l-3.15-.67Z"/>
          <path class="cls-2" d="M973.37,245.26v-4.26c0-5.41,4.52-8.15,8.89-8.15,4.63,0,9.07,2.78,9.07,8.03v3.96c0,5.41-4.63,8.03-8.92,8.03-4.63,0-9.03-2.37-9.03-7.63ZM985.93,245.26v-4.78c0-2.07-1.55-3.37-3.63-3.37-1.81,0-3.52,1.04-3.52,3.48v4.74c0,2.07,1.48,3.33,3.63,3.33,1.81,0,3.52-1.04,3.52-3.41Z"/>
          <path class="cls-2" d="M993.85,249.52l3.18-3c1.26,1.41,3.26,2.37,5.37,2.37,1.63,0,3.41-.48,3.41-1.96,0-1.3-.96-1.63-3.04-2-.04,0-1.96-.33-2.96-.63-3.11-.63-5.11-2.18-5.11-5.04,0-3.92,3.44-6.44,7.89-6.44,3.55,0,5.85.78,7.74,2.85l-3.37,2.78c-1.18-1.22-2.67-1.78-4.37-1.78s-2.81.59-2.81,1.81,1.52,1.41,3.18,1.7l3.11.63c3.33.67,5.22,2.63,5.22,5.44,0,4.55-4.7,6.59-8.66,6.59-3.48,0-6.55-.74-8.78-3.33Z"/>
        </g>
      </g>
    </g>
  </g>
</svg>