<?xml version="1.0" encoding="UTF-8"?>
<svg id="Capa_2" data-name="Capa 2" xmlns="http://www.w3.org/2000/svg" viewBox="0 0 1221.86 273">
  <defs>
    <style>
      .cls-1, .cls-2 {
        fill: #fff;
      }

      .cls-3 {
        fill: none;
      }

      .cls-2 {
        opacity: .6;
      }
    </style>
  </defs>
  <g id="Capa_1-2" data-name="Capa 1">
    <g>
      <g>
        <g>
          <path class="cls-3" d="M1147.08,41.29c-16.25,0-25.49,10.37-25.49,23.55v81.59c0,6,1.9,11.69,5.74,16,4.22,4.75,10.79,7.83,19.75,7.83,16.81,0,24.93-12.06,24.93-24.39V64c0-12.62-8.97-22.71-24.93-22.71Z"/>
          <path class="cls-1" d="M1115.4,82.67h6.2v-14.78c-16.2-9.51-28.96-24.28-35.94-41.95-8.77,9.81-14.2,22.92-14.2,39.75v67.25c24.81-3.28,43.95-24.54,43.95-50.27Z"/>
          <path class="cls-1" d="M1221.31,57.34c-13.26,12.12-30.38,20.07-49.31,21.79v66.75c0,12.33-8.13,24.39-24.93,24.39-8.96,0-15.52-3.08-19.75-7.83-12.87,10.14-28.25,17.22-45.05,20.16,14.27,19.15,40.44,26.65,64.8,26.65,35.57,0,74.79-18.79,74.79-62.53v-80.19c0-3.2-.19-6.26-.55-9.19Z"/>
          <path class="cls-2" d="M1121.59,146.43v-63.77h-6.2c0,25.73-19.14,46.99-43.95,50.27v14.34c0,14.65,4.09,26.28,10.83,35.31,16.81-2.94,32.18-10.02,45.05-20.16-3.83-4.31-5.74-9.99-5.74-16Z"/>
          <path class="cls-2" d="M1121.59,67.88v-3.05c0-13.18,9.24-23.55,25.49-23.55s24.93,10.09,24.93,22.71v15.12c18.92-1.71,36.05-9.67,49.31-21.79-4.81-38.98-40.39-54.74-74.52-54.74-23.19,0-46.7,7.17-61.15,23.33,6.98,17.68,19.74,32.44,35.94,41.95Z"/>
        </g>
        <g>
          <path class="cls-3" d="M999.69,158.2h-84.13v-35.07L987.83,4.12h52.96l-76.13,117.36h35.03v-24.3l45.51-29.27v53.57h20.69v36.73h-20.69v43.08h-45.51v-43.08Z"/>
          <path class="cls-3" d="M999.98,158.5h-84.13v-35.07L988.12,4.42h52.96l-76.13,117.36h35.03v-24.3l45.51-29.27v53.57h20.69v36.73h-20.69v43.08h-45.51v-43.08Z"/>
          <path class="cls-3" d="M999.89,121.75v-4.15c-1.22,1.34-2.4,2.72-3.52,4.15h3.52Z"/>
          <path class="cls-1" d="M1040.99,4.39h-52.96l-31.78,52.34c20.34-18.08,45.69-30.64,73.71-35.32l11.04-17.01Z"/>
          <path class="cls-1" d="M1061.64,153.67c1.49,0,2.98.05,4.45.14v-32.06h-20.69v-27.7c-17.95,2.21-33.91,10.85-45.51,23.55v4.15h-3.52c-8.17,10.36-13.62,22.96-15.32,36.73h18.84v27.76c13.5-19.66,36.12-32.56,61.75-32.56Z"/>
          <path class="cls-2" d="M999.89,97.45v20.15c11.6-12.7,27.56-21.34,45.51-23.55v-25.87l-45.51,29.27Z"/>
          <path class="cls-2" d="M964.86,121.75l65.09-100.34c-28.02,4.69-53.36,17.24-73.71,35.32l-40.49,66.68v35.07h65.29c1.69-13.77,7.15-26.36,15.32-36.73h-31.51Z"/>
          <path class="cls-2" d="M999.89,186.23v15.32h45.51v-43.08h20.69v-4.67c-1.47-.09-2.95-.14-4.45-.14-25.63,0-48.26,12.9-61.75,32.56Z"/>
        </g>
        <g>
          <path class="cls-1" d="M994.13,239.87c-1.89,0-3.67,1.08-3.67,3.63v4.94c0,2.16,1.54,3.47,3.78,3.47,1.89,0,3.67-1.08,3.67-3.55v-4.98c0-2.16-1.62-3.51-3.78-3.51Z"/>
          <path class="cls-1" d="M948.4,249.79c0,1.47,1.12,2.32,3.2,2.32,3.05,0,3.9-1.58,3.9-3.59v-1.04h-3.82c-1.97,0-3.28.62-3.28,2.32Z"/>
          <path class="cls-1" d="M916.1,214.56v18.02c0,21.29,17.26,38.55,38.55,38.55h84.47v-56.57h-123.02ZM1037.9,214.56v56.57h183.75v-56.57h-183.75ZM970.31,227.29c2.28,0,4.25,1.27,6.49,1.27,1.08,0,1.31-.93,1.58-1.85l3.17.73c-.42,2.9-1.93,5.25-4.71,5.25-2.28,0-4.4-1.24-6.49-1.24-.81,0-1.12.35-1.74,1.81l-3.28-.69c.5-2.97,2.16-5.29,4.98-5.29ZM956.01,255.85l-.19-2.05h-.12c-1.7,2.05-3.67,2.47-5.98,2.47-3.98,0-6.79-2.2-6.79-5.98,0-4.29,4.25-6.33,8.18-6.33h4.4v-1.7c0-1.85-1.24-2.78-3.47-2.78-2.05,0-3.28.85-3.28,2.05v.62h-4.94v-.62c0-4.36,4.25-6.1,8.42-6.1,4.56,0,8.8,1.66,8.8,6.64v9.42c0,1.24.19,3.94.35,4.36h-5.37ZM982.35,255.85h-5.52v-11.66c0-2.51-1.04-4.17-3.4-4.17s-3.67,1.47-3.67,4.56v11.27h-5.56v-20.03h5.4v2.51h.08c1.43-1.97,3.55-2.93,5.91-2.93,4.01,0,6.76,2.47,6.76,7.1v13.36ZM1003.55,247.94c0,5.64-4.83,8.38-9.3,8.38-4.83,0-9.42-2.47-9.42-7.95v-4.44c0-5.64,4.71-8.49,9.26-8.49,4.83,0,9.46,2.9,9.46,8.38v4.13ZM1013.98,256.28c-3.63,0-6.83-.77-9.15-3.47l3.32-3.13c1.31,1.47,3.4,2.47,5.6,2.47,1.7,0,3.55-.5,3.55-2.05,0-1.35-1-1.7-3.17-2.08-.04,0-2.05-.35-3.09-.66-3.24-.66-5.33-2.28-5.33-5.25,0-4.09,3.59-6.72,8.22-6.72,3.71,0,6.1.81,8.07,2.97l-3.51,2.9c-1.24-1.27-2.78-1.85-4.56-1.85s-2.93.62-2.93,1.89,1.58,1.47,3.32,1.78l3.24.66c3.47.7,5.44,2.74,5.44,5.67,0,4.75-4.9,6.87-9.03,6.87Z"/>
        </g>
      </g>
      <g>
        <polygon class="cls-1" points="118.6 85.19 104.28 85.19 104.28 99.79 93.4 99.79 93.4 85.19 79.06 85.19 79.06 73.52 93.4 73.52 93.4 58.91 104.28 58.91 104.28 73.52 118.6 73.52 118.6 85.19"/>
        <path class="cls-1" d="M253.58,162.78V49.35h37.28v110c0,20.54,10.04,34.47,32.02,34.47,20.55,0,31.54-11.74,31.54-34.47V49.35h36.8v111.23c0,42.52-29.16,66-69.06,66s-68.58-21.03-68.58-63.8"/>
        <path class="cls-1" d="M417.73,164.98v-54.27c0-42.06,32.26-64.3,69.77-64.3,32.74,0,67.15,17.85,67.15,57.45v6.85h-35.12v-3.43c0-20.28-17.44-28.6-31.79-28.6-15.53,0-32.97,8.57-32.97,30.81v54.26c0,19.32,15.29,30.57,33.93,30.57,14.34,0,30.82-8.31,30.82-28.85v-3.18h35.12v6.85c0,39.6-33.22,57.45-66.19,57.45-37.29,0-70.73-20.29-70.73-61.6"/>
        <path class="cls-1" d="M579.97,162.78V49.35h37.28v110c0,20.54,10.04,34.47,32.01,34.47,20.57,0,31.55-11.74,31.55-34.47V49.35h36.8v111.23c0,42.52-29.16,66-69.06,66s-68.58-21.03-68.58-63.8"/>
        <path class="cls-1" d="M98.83,11.59C44.34,11.59,0,56.94,0,112.69v47.61c0,55.75,44.34,101.11,98.83,101.11s98.84-45.36,98.84-101.11v-47.61c0-55.75-44.34-101.11-98.84-101.11M98.83,241.84c-44.01,0-79.69-36.5-79.69-81.53v-47.61c0-45.02,35.68-81.53,79.69-81.53s79.69,36.51,79.69,81.53v47.61c0,45.03-35.67,81.53-79.69,81.53"/>
        <path class="cls-1" d="M40.59,197.51h116.5c3.38-5.45,5.95-11.36,7.57-17.6H33.01c1.62,6.24,4.19,12.15,7.58,17.6"/>
        <path class="cls-1" d="M52.11,211.44c11.7,10.79,27.31,17.6,44.51,17.6h4.42c17.2,0,32.81-6.81,44.52-17.6H52.11Z"/>
        <polygon class="cls-1" points="98.83 124.97 31.85 164.4 31.85 166.06 165.81 166.06 165.81 164.4 98.83 124.97"/>
      </g>
      <rect class="cls-1" x="813.6" width="5" height="273"/>
    </g>
  </g>
</svg>