<?xml version="1.0" encoding="utf-8"?>
<!-- Generator: Adobe Illustrator 17.0.0, SVG Export Plug-In . SVG Version: 6.00 Build 0)  -->
<!DOCTYPE svg PUBLIC "-//W3C//DTD SVG 1.1//EN" "http://www.w3.org/Graphics/SVG/1.1/DTD/svg11.dtd">
<svg version="1.1" id="Layer_1" xmlns="http://www.w3.org/2000/svg" xmlns:xlink="http://www.w3.org/1999/xlink" x="0px" y="0px"
	 width="84px" height="84px" viewBox="0.5 0.5 84 84" enable-background="new 0.5 0.5 84 84" xml:space="preserve">
<g>
	<path fill="#FFFFFF" d="M55.673,13.1H29.326c-8.947,0-16.226,7.279-16.226,16.227v26.347c0,8.948,7.279,16.227,16.226,16.227
		h26.347c8.948,0,16.227-7.279,16.227-16.227V29.327C71.9,20.379,64.621,13.1,55.673,13.1z M66.683,55.673
		c0,6.071-4.939,11.01-11.01,11.01H29.326c-6.071,0-11.009-4.939-11.009-11.01V29.327c0-6.071,4.939-11.01,11.009-11.01h26.347
		c6.071,0,11.01,4.939,11.01,11.01L66.683,55.673L66.683,55.673z"/>
	<path fill="#FFFFFF" d="M42.5,27.349c-8.355,0-15.151,6.797-15.151,15.151c0,8.354,6.797,15.151,15.151,15.151
		s15.151-6.796,15.151-15.151C57.651,34.146,50.855,27.349,42.5,27.349z M42.5,52.434c-5.478,0-9.934-4.456-9.934-9.934
		c0-5.478,4.456-9.934,9.934-9.934s9.934,4.456,9.934,9.934C52.434,47.978,47.978,52.434,42.5,52.434z"/>
	<path fill="#FFFFFF" d="M58.287,22.926c-1.005,0-1.993,0.407-2.702,1.12c-0.713,0.71-1.123,1.697-1.123,2.706
		c0,1.005,0.41,1.993,1.123,2.706c0.71,0.71,1.697,1.12,2.702,1.12c1.009,0,1.993-0.41,2.706-1.12
		c0.713-0.713,1.12-1.701,1.12-2.706c0-1.009-0.407-1.996-1.12-2.706C60.283,23.333,59.295,22.926,58.287,22.926z"/>
</g>
</svg>
