<?xml version="1.0" encoding="utf-8"?>
<!-- Generator: Adobe Illustrator 19.2.1, SVG Export Plug-In . SVG Version: 6.00 Build 0)  -->
<svg version="1.1" id="Layer_1" xmlns="http://www.w3.org/2000/svg" xmlns:xlink="http://www.w3.org/1999/xlink" x="0px" y="0px"
	 viewBox="0 0 84 84" style="enable-background:new 0 0 84 84;" xml:space="preserve">
<style type="text/css">
	.st0{fill:#FFFFFF;}
</style>
<g>
	<path class="st0" d="M65.4,14.9H20.3c-2.2,0-3.9,1.7-3.9,3.8v45.3c0,2.1,1.8,3.8,3.9,3.8h45.1c2.2,0,3.9-1.7,3.9-3.8V18.7
		C69.3,16.6,67.6,14.9,65.4,14.9z M32.1,60.1h-7.9V34.8h7.9V60.1z M28.1,31.3c-2.5,0-4.6-2-4.6-4.6c0-2.5,2-4.6,4.6-4.6
		c2.5,0,4.6,2,4.6,4.6C32.7,29.3,30.7,31.3,28.1,31.3z M61.5,60.1h-7.9V47.8c0-2.9-0.1-6.7-4.1-6.7c-4.1,0-4.7,3.2-4.7,6.5v12.5H37
		V34.8h7.5v3.5h0.1c1-2,3.6-4.1,7.4-4.1c8,0,9.4,5.2,9.4,12V60.1z"/>
</g>
</svg>
