<?xml version="1.0" encoding="utf-8"?>
<!-- Generator: Adobe Illustrator 25.4.1, SVG Export Plug-In . SVG Version: 6.00 Build 0)  -->
<svg version="1.1" id="Layer_1" xmlns="http://www.w3.org/2000/svg" xmlns:xlink="http://www.w3.org/1999/xlink" x="0px" y="0px"
	 viewBox="0 0 84 84" style="enable-background:new 0 0 84 84;" xml:space="preserve">
<style type="text/css">
	.st0{display:none;fill:#272793;}
	.st1{fill:#FFFFFF;}
</style>
<path class="st0" d="M69.1,28.7l0,1.7c0,17-12.9,36.6-36.6,36.6c-7.3,0-14-2.1-19.7-5.8c1,0.1,2,0.2,3.1,0.2c6,0,11.6-2.1,16-5.5
	c-5.6-0.1-10.4-3.8-12-8.9c0.8,0.2,1.6,0.2,2.4,0.2c1.2,0,2.3-0.2,3.4-0.4c-5.9-1.2-10.3-6.4-10.3-12.6V34c1.7,1,3.7,1.5,5.8,1.6
	c-3.5-2.3-5.7-6.2-5.7-10.7c0-2.4,0.6-4.6,1.7-6.5c6.3,7.8,15.8,12.9,26.5,13.4c-0.2-0.9-0.3-1.9-0.3-2.9c0-7.1,5.8-12.9,12.9-12.9
	c3.7,0,7,1.6,9.4,4.1c2.9-0.6,5.7-1.7,8.2-3.1c-1,3-3,5.5-5.7,7.1c2.6-0.3,5.1-1,7.4-2C73.8,24.7,71.6,26.9,69.1,28.7z"/>
<g id="Capa_2-3">
	<g id="Capa_1-2-3">
		<g id="Capa_2-2-2">
			<g id="Capa_1-2-2-2">
				<path class="st1" d="M47.8,38.2l21.9-24.8h-5.2L45.5,35L30.4,13.4H12.9L35.8,46l-22.9,26h5l20.2-22.7l16.2,22.9h17.4 M20,17.2
					h8.1l36.6,51.2h-8.1"/>
			</g>
		</g>
	</g>
</g>
</svg>
