<?xml version="1.0" encoding="utf-8"?>
<!-- Generator: Adobe Illustrator 17.0.0, SVG Export Plug-In . SVG Version: 6.00 Build 0)  -->
<!DOCTYPE svg PUBLIC "-//W3C//DTD SVG 1.1//EN" "http://www.w3.org/Graphics/SVG/1.1/DTD/svg11.dtd">
<svg version="1.1" id="Layer_1" xmlns="http://www.w3.org/2000/svg" xmlns:xlink="http://www.w3.org/1999/xlink" x="0px" y="0px"
	 width="84px" height="84px" viewBox="0.5 0.5 84 84" enable-background="new 0.5 0.5 84 84" xml:space="preserve">
<path fill="#FFFFFF" d="M72.431,29.843c0,0-1.667-4.354-3.49-6.278c-2.228-2.43-4.724-2.531-5.838-2.633
	c-8.202-0.607-11.033-0.709-20.552-0.709s-12.357,0.101-20.559,0.709c-1.114,0.101-3.624,0.203-5.852,2.633
	c-1.823,1.924-3.517,6.278-3.517,6.278s-1.796,5.164-1.796,10.328v4.759c0,5.164,1.807,10.227,1.807,10.227s1.207,4.354,2.928,6.278
	c2.228,2.531,5.464,2.43,6.78,2.734c4.658,0.506,12.865,0.607,20.212,0.607s15.554-0.101,20.212-0.607
	c1.316-0.304,4.553-0.203,6.78-2.734c1.721-1.924,2.873-6.278,2.873-6.278s1.752-5.063,1.752-10.227v-4.759
	C74.172,35.007,72.431,29.843,72.431,29.843z M34.066,54.246V32.273l19.239,11.24L34.066,54.246z"/>
</svg>
